<svg width="44" height="44" viewBox="0 0 44 44" fill="none" xmlns="http://www.w3.org/2000/svg">
<g clip-path="url(#clip0_157_253)">
<path d="M20 15C20 15.5304 20.2107 16.0391 20.5858 16.4142C20.9609 16.7893 21.4696 17 22 17C22.5304 17 23.0391 16.7893 23.4142 16.4142C23.7893 16.0391 24 15.5304 24 15C24 14.4696 23.7893 13.9609 23.4142 13.5858C23.0391 13.2107 22.5304 13 22 13C21.4696 13 20.9609 13.2107 20.5858 13.5858C20.2107 13.9609 20 14.4696 20 15Z" stroke="white" stroke-width="2" stroke-linecap="round" stroke-linejoin="round"/>
<path d="M29.9999 22.5V27.25C30.0065 27.3611 29.9877 27.4722 29.9449 27.575C29.8782 27.7358 29.7542 27.8662 29.5969 27.941L24.1349 30.521C23.4673 30.8362 22.7382 30.9997 21.9999 30.9997C21.2617 30.9997 20.5325 30.8362 19.8649 30.521L14.4029 27.941C14.274 27.8799 14.1667 27.7812 14.0951 27.6578C14.0235 27.5344 13.991 27.3922 14.0019 27.25V22.5" stroke="white" stroke-width="2" stroke-linecap="round" stroke-linejoin="round"/>
<path d="M14.431 22.2162L20.065 19.8842C21.3041 19.3719 22.6958 19.3719 23.935 19.8842L29.569 22.2162C29.6938 22.2672 29.801 22.3535 29.8774 22.4646C29.9538 22.5757 29.9961 22.7067 29.9991 22.8415C30.002 22.9763 29.9656 23.109 29.8941 23.2234C29.8227 23.3377 29.7194 23.4287 29.597 23.4852L24.135 26.0282C23.4662 26.3391 22.7375 26.5003 22 26.5003C21.2624 26.5003 20.5338 26.3391 19.865 26.0282L14.403 23.4852C14.2799 23.4292 14.1759 23.3383 14.1039 23.2238C14.032 23.1093 13.9952 22.9762 13.9982 22.841C14.0012 22.7057 14.0438 22.5744 14.1207 22.4631C14.1976 22.3519 14.3055 22.2667 14.431 22.2162Z" stroke="white" stroke-width="2" stroke-linecap="round" stroke-linejoin="round"/>
<path d="M22 17V23" stroke="white" stroke-width="2" stroke-linecap="round" stroke-linejoin="round"/>
</g>
<defs>
<clipPath id="clip0_157_253">
<rect width="24" height="24" fill="white" transform="translate(10 10)"/>
</clipPath>
</defs>
</svg>
