<svg width="18" height="18" viewBox="0 0 18 18" fill="none" xmlns="http://www.w3.org/2000/svg">
<path d="M6.75 7.49988C6.75 7.59933 6.78951 7.69472 6.85983 7.76504C6.93016 7.83537 7.02554 7.87488 7.125 7.87488C7.22446 7.87488 7.31984 7.83537 7.39017 7.76504C7.46049 7.69472 7.5 7.59933 7.5 7.49988V6.74988C7.5 6.65042 7.46049 6.55504 7.39017 6.48471C7.31984 6.41439 7.22446 6.37488 7.125 6.37488C7.02554 6.37488 6.93016 6.41439 6.85983 6.48471C6.78951 6.55504 6.75 6.65042 6.75 6.74988V7.49988ZM6.75 7.49988C6.75 8.49444 7.14509 9.44827 7.84835 10.1515C8.55161 10.8548 9.50544 11.2499 10.5 11.2499M10.5 11.2499H11.25C11.3495 11.2499 11.4448 11.2104 11.5152 11.14C11.5855 11.0697 11.625 10.9743 11.625 10.8749C11.625 10.7754 11.5855 10.68 11.5152 10.6097C11.4448 10.5394 11.3495 10.4999 11.25 10.4999H10.5C10.4005 10.4999 10.3052 10.5394 10.2348 10.6097C10.1645 10.68 10.125 10.7754 10.125 10.8749C10.125 10.9743 10.1645 11.0697 10.2348 11.14C10.3052 11.2104 10.4005 11.2499 10.5 11.2499ZM2.25 15.75L3.4875 12.9C2.54075 11.5561 2.117 9.91281 2.29578 8.27862C2.47457 6.64442 3.24359 5.13164 4.45853 4.02418C5.67347 2.91671 7.25081 2.2907 8.89454 2.26361C10.5383 2.23653 12.1354 2.81023 13.3861 3.87707C14.6369 4.9439 15.4554 6.43052 15.6879 8.05794C15.9204 9.68536 15.551 11.3417 14.6491 12.7161C13.7471 14.0905 12.3746 15.0886 10.789 15.5229C9.20351 15.9572 7.51397 15.7979 6.0375 15.075L2.25 15.75Z" stroke="white" stroke-width="2" stroke-linecap="round" stroke-linejoin="round"/>
</svg>
