<svg width="18" height="18" viewBox="0 0 18 18" fill="none" xmlns="http://www.w3.org/2000/svg">
<path d="M6 10.8752C6.375 12.3752 7.7685 12.7502 9 12.7502C11.1787 12.7502 12 11.86 12 10.8752C12 9.74799 10.5547 9.00024 9 9.00024C7.44525 9.00024 6 8.25024 6 7.12524C6 6.14049 6.82125 5.25024 9 5.25024C10.2315 5.25024 11.625 5.62524 12 7.12524M9 2.25018C10.0566 2.24994 11.0986 2.49777 12.0419 2.97371C12.9853 3.44966 13.8037 4.14042 14.4314 4.99041C15.0591 5.8404 15.4785 6.82587 15.6558 7.86752C15.8331 8.90917 15.7634 9.97789 15.4522 10.9877C15.7343 11.6125 15.8194 12.3084 15.6962 12.9828C15.5731 13.6572 15.2474 14.2781 14.7627 14.7628C14.2779 15.2476 13.657 15.5732 12.9826 15.6964C12.3082 15.8196 11.6123 15.7345 10.9875 15.4524C9.81433 15.8143 8.56468 15.8494 7.37307 15.5539C6.18145 15.2583 5.093 14.6434 4.22488 13.7753C3.35675 12.9072 2.74184 11.8187 2.44632 10.6271C2.15079 9.43549 2.18586 8.18584 2.54775 7.01268C2.26543 6.38782 2.18013 5.69179 2.3032 5.01725C2.42628 4.34271 2.7519 3.72165 3.2367 3.23676C3.72151 2.75188 4.34251 2.42616 5.01703 2.30297C5.69155 2.17978 6.38759 2.26496 7.0125 2.54718C7.65644 2.34942 8.32638 2.2493 9 2.25018Z" stroke="white" stroke-width="2" stroke-linecap="round" stroke-linejoin="round"/>
</svg>
