<svg width="20" height="20" viewBox="0 0 20 20" fill="none" xmlns="http://www.w3.org/2000/svg">
<circle cx="9.99996" cy="10.0001" r="8.33333" fill="#C13584"/>
<path d="M10 5.9009C11.3351 5.9009 11.4932 5.906 12.0204 5.93005C12.5079 5.95228 12.7727 6.03374 12.9489 6.10221C13.1822 6.19291 13.3488 6.30126 13.5238 6.47621C13.6987 6.65119 13.8071 6.81775 13.8978 7.05114C13.9663 7.22732 14.0477 7.49207 14.0699 7.97956C14.094 8.50679 14.0991 8.66493 14.0991 9.99997C14.0991 11.335 14.094 11.4932 14.0699 12.0204C14.0477 12.5079 13.9663 12.7726 13.8978 12.9488C13.8071 13.1822 13.6987 13.3488 13.5238 13.5237C13.3488 13.6987 13.1822 13.8071 12.9489 13.8978C12.7727 13.9662 12.5079 14.0477 12.0204 14.0699C11.4933 14.094 11.3352 14.0991 10 14.0991C8.66485 14.0991 8.50674 14.094 7.97957 14.0699C7.49208 14.0477 7.22733 13.9662 7.05114 13.8978C6.81776 13.8071 6.6512 13.6987 6.47624 13.5237C6.30128 13.3488 6.19292 13.1822 6.10221 12.9488C6.03374 12.7726 5.95228 12.5079 5.93006 12.0204C5.906 11.4932 5.9009 11.335 5.9009 9.99997C5.9009 8.66493 5.906 8.50679 5.93006 7.97956C5.95228 7.49207 6.03374 7.22732 6.10221 7.05114C6.19292 6.81775 6.30126 6.65119 6.47624 6.47623C6.6512 6.30126 6.81776 6.19291 7.05114 6.10221C7.22733 6.03374 7.49208 5.95228 7.97957 5.93005C8.5068 5.906 8.66495 5.9009 10 5.9009ZM10 5C8.64208 5 8.47181 5.00576 7.93851 5.03009C7.40631 5.05436 7.04285 5.13889 6.72481 5.26248C6.39602 5.39026 6.11718 5.56123 5.83919 5.83919C5.56123 6.11717 5.39026 6.39601 5.2625 6.7248C5.13889 7.04284 5.05436 7.40631 5.03009 7.9385C5.00576 8.4718 5 8.64207 5 9.99997C5 11.3579 5.00576 11.5282 5.03009 12.0615C5.05436 12.5937 5.13889 12.9571 5.2625 13.2752C5.39026 13.604 5.56123 13.8828 5.83919 14.1608C6.11718 14.4387 6.39602 14.6097 6.72481 14.7375C7.04285 14.8611 7.40631 14.9456 7.93851 14.9699C8.47181 14.9942 8.64208 15 10 15C11.3579 15 11.5282 14.9942 12.0615 14.9699C12.5937 14.9456 12.9572 14.8611 13.2752 14.7375C13.604 14.6097 13.8828 14.4387 14.1608 14.1608C14.4388 13.8828 14.6097 13.604 14.7375 13.2752C14.8611 12.9571 14.9456 12.5937 14.9699 12.0615C14.9942 11.5282 15 11.3579 15 9.99997C15 8.64207 14.9942 8.4718 14.9699 7.9385C14.9456 7.40631 14.8611 7.04284 14.7375 6.7248C14.6097 6.39601 14.4388 6.11717 14.1608 5.83919C13.8828 5.56123 13.604 5.39026 13.2752 5.26248C12.9572 5.13889 12.5937 5.05436 12.0615 5.03009C11.5282 5.00576 11.3579 5 10 5Z" fill="white"/>
<path d="M10.0024 7.43481C8.58434 7.43481 7.43481 8.58434 7.43481 10.0024C7.43481 11.4204 8.58434 12.5699 10.0024 12.5699C11.4204 12.5699 12.5699 11.4204 12.5699 10.0024C12.5699 8.58434 11.4204 7.43481 10.0024 7.43481ZM10.0024 11.669C9.0819 11.669 8.33571 10.9228 8.33571 10.0024C8.33571 9.0819 9.0819 8.33571 10.0024 8.33571C10.9229 8.33571 11.669 9.0819 11.669 10.0024C11.669 10.9228 10.9229 11.669 10.0024 11.669Z" fill="white"/>
<path d="M13.2712 7.3317C13.2712 7.66305 13.0025 7.93169 12.6712 7.93169C12.3398 7.93169 12.0712 7.66305 12.0712 7.3317C12.0712 7.00033 12.3398 6.73169 12.6712 6.73169C13.0025 6.73169 13.2712 7.00033 13.2712 7.3317Z" fill="white"/>
</svg>
