<svg width="20" height="20" viewBox="0 0 20 20" fill="none" xmlns="http://www.w3.org/2000/svg">
<circle cx="9.99996" cy="10.0001" r="8.33333" fill="#0077B5"/>
<path fill-rule="evenodd" clip-rule="evenodd" d="M7.82285 5.95162C7.82285 6.47041 7.42784 6.89025 6.8101 6.89025C6.21644 6.89025 5.82143 6.47041 5.83365 5.95162C5.82143 5.40762 6.21643 5 6.82194 5C7.42783 5 7.81101 5.40762 7.82285 5.95162ZM5.88332 13.6746V7.63176H7.76134V13.6742H5.88332V13.6746Z" fill="white"/>
<path fill-rule="evenodd" clip-rule="evenodd" d="M9.26658 9.56013C9.26658 8.8064 9.24175 8.16384 9.21692 7.63244H10.8482L10.9349 8.46029H10.9719C11.2191 8.07712 11.8368 7.49683 12.8377 7.49683C14.0732 7.49683 15 8.31245 15 10.0911V13.6753H13.122V10.3265C13.122 9.54753 12.8504 9.01651 12.1707 9.01651C11.6516 9.01651 11.3429 9.37485 11.2195 9.72058C11.1698 9.84436 11.1454 10.017 11.1454 10.1905V13.6753H9.26734V9.56013H9.26658Z" fill="white"/>
</svg>
