<svg width="104" height="45" viewBox="0 0 104 45" fill="none" xmlns="http://www.w3.org/2000/svg">
<path d="M4.16 1.08H21.32V4.8H8.04V14.04H19.68V17.72H8.04V30H4.16V1.08ZM35.3947 1.08C36.8614 1.08 38.208 1.28 39.4347 1.68C40.688 2.05333 41.768 2.62667 42.6747 3.4C43.608 4.14667 44.328 5.08 44.8347 6.2C45.368 7.29333 45.6347 8.57333 45.6347 10.04C45.6347 11.1867 45.4614 12.3067 45.1147 13.4C44.7947 14.4933 44.248 15.4933 43.4747 16.4C42.7014 17.28 41.688 18 40.4347 18.56C39.208 19.0933 37.688 19.36 35.8747 19.36H31.5947V30H27.7147V1.08H35.3947ZM35.7947 15.64C36.9414 15.64 37.888 15.4667 38.6347 15.12C39.408 14.7733 40.008 14.3333 40.4347 13.8C40.8614 13.24 41.168 12.64 41.3547 12C41.5414 11.36 41.6347 10.76 41.6347 10.2C41.6347 9.61333 41.528 9.01333 41.3147 8.4C41.128 7.76 40.808 7.17333 40.3547 6.64C39.928 6.10667 39.3547 5.66667 38.6347 5.32C37.9414 4.97333 37.088 4.8 36.0747 4.8H31.5947V15.64H35.7947ZM40.5547 17.84L48.1147 30H43.6347L35.9547 17.96L40.5547 17.84Z" fill="url(#paint0_linear_4_63)"/>
<path d="M53.8219 30.12C53.4459 30.12 53.0819 30.032 52.7299 29.856C52.3859 29.68 52.1179 29.444 51.9259 29.148L51.9979 28.8V32.388H50.8939V24.96H51.8539L52.0099 26.232L51.8899 25.884C52.1299 25.58 52.4339 25.328 52.8019 25.128C53.1699 24.928 53.5819 24.828 54.0379 24.828C54.5019 24.828 54.9179 24.94 55.2859 25.164C55.6619 25.388 55.9579 25.7 56.1739 26.1C56.3899 26.5 56.4979 26.968 56.4979 27.504C56.4979 28.04 56.3819 28.504 56.1499 28.896C55.9179 29.288 55.5979 29.592 55.1899 29.808C54.7899 30.016 54.3339 30.12 53.8219 30.12ZM53.6059 29.232C53.9259 29.232 54.2179 29.16 54.4819 29.016C54.7539 28.864 54.9699 28.66 55.1299 28.404C55.2899 28.14 55.3699 27.844 55.3699 27.516C55.3699 27.18 55.2939 26.884 55.1419 26.628C54.9899 26.364 54.7859 26.156 54.5299 26.004C54.2819 25.852 54.0019 25.776 53.6899 25.776C53.4019 25.776 53.1419 25.832 52.9099 25.944C52.6779 26.056 52.4859 26.212 52.3339 26.412C52.1819 26.604 52.0739 26.828 52.0099 27.084V27.912C52.0499 28.168 52.1459 28.396 52.2979 28.596C52.4499 28.796 52.6379 28.952 52.8619 29.064C53.0939 29.176 53.3419 29.232 53.6059 29.232ZM57.5752 27.468C57.5752 26.972 57.6912 26.524 57.9232 26.124C58.1632 25.724 58.4912 25.408 58.9072 25.176C59.3232 24.944 59.7952 24.828 60.3232 24.828C60.8672 24.828 61.3432 24.944 61.7512 25.176C62.1592 25.408 62.4752 25.724 62.6992 26.124C62.9232 26.524 63.0352 26.972 63.0352 27.468C63.0352 27.964 62.9232 28.416 62.6992 28.824C62.4752 29.224 62.1552 29.54 61.7392 29.772C61.3312 30.004 60.8552 30.12 60.3112 30.12C59.7832 30.12 59.3112 30.012 58.8952 29.796C58.4872 29.572 58.1632 29.264 57.9232 28.872C57.6912 28.472 57.5752 28.004 57.5752 27.468ZM58.6912 27.48C58.6912 27.8 58.7632 28.092 58.9072 28.356C59.0512 28.612 59.2432 28.816 59.4832 28.968C59.7312 29.12 60.0032 29.196 60.2992 29.196C60.6112 29.196 60.8872 29.12 61.1272 28.968C61.3752 28.816 61.5672 28.612 61.7032 28.356C61.8392 28.092 61.9072 27.8 61.9072 27.48C61.9072 27.16 61.8392 26.872 61.7032 26.616C61.5672 26.352 61.3752 26.144 61.1272 25.992C60.8872 25.832 60.6112 25.752 60.2992 25.752C59.9952 25.752 59.7192 25.832 59.4712 25.992C59.2312 26.152 59.0392 26.364 58.8952 26.628C58.7592 26.884 58.6912 27.168 58.6912 27.48ZM65.5422 25.032L65.6502 26.472L65.5902 26.28C65.7182 25.976 65.9022 25.72 66.1422 25.512C66.3902 25.296 66.6462 25.132 66.9102 25.02C67.1822 24.9 67.4182 24.84 67.6182 24.84L67.5582 25.944C67.1822 25.92 66.8502 25.992 66.5622 26.16C66.2822 26.328 66.0582 26.552 65.8902 26.832C65.7302 27.112 65.6502 27.412 65.6502 27.732V30H64.5462V25.032H65.5422ZM69.5379 22.848H70.6539V25.056H72.0219V25.932H70.6539V30H69.5379V25.932H68.6259V25.056H69.5379V22.848ZM73.7784 30V26.028H72.9264V25.032H73.7784V22.932C73.7784 22.212 73.9384 21.66 74.2584 21.276C74.5864 20.892 75.0664 20.7 75.6984 20.7C75.8664 20.7 76.0504 20.724 76.2504 20.772C76.4584 20.82 76.6384 20.9 76.7904 21.012L76.3224 21.816C76.2504 21.744 76.1704 21.696 76.0824 21.672C75.9944 21.64 75.9064 21.624 75.8184 21.624C75.5224 21.624 75.2944 21.724 75.1344 21.924C74.9744 22.124 74.8944 22.464 74.8944 22.944V25.032H76.4664V26.028H74.8944V30H73.7784ZM77.2158 27.468C77.2158 26.972 77.3318 26.524 77.5638 26.124C77.8038 25.724 78.1318 25.408 78.5478 25.176C78.9638 24.944 79.4358 24.828 79.9638 24.828C80.5078 24.828 80.9838 24.944 81.3918 25.176C81.7998 25.408 82.1158 25.724 82.3398 26.124C82.5638 26.524 82.6758 26.972 82.6758 27.468C82.6758 27.964 82.5638 28.416 82.3398 28.824C82.1158 29.224 81.7958 29.54 81.3798 29.772C80.9718 30.004 80.4958 30.12 79.9518 30.12C79.4238 30.12 78.9518 30.012 78.5358 29.796C78.1278 29.572 77.8038 29.264 77.5638 28.872C77.3318 28.472 77.2158 28.004 77.2158 27.468ZM78.3318 27.48C78.3318 27.8 78.4038 28.092 78.5478 28.356C78.6918 28.612 78.8838 28.816 79.1238 28.968C79.3718 29.12 79.6438 29.196 79.9398 29.196C80.2518 29.196 80.5278 29.12 80.7678 28.968C81.0158 28.816 81.2078 28.612 81.3438 28.356C81.4798 28.092 81.5478 27.8 81.5478 27.48C81.5478 27.16 81.4798 26.872 81.3438 26.616C81.2078 26.352 81.0158 26.144 80.7678 25.992C80.5278 25.832 80.2518 25.752 79.9398 25.752C79.6358 25.752 79.3598 25.832 79.1118 25.992C78.8718 26.152 78.6798 26.364 78.5358 26.628C78.3998 26.884 78.3318 27.168 78.3318 27.48ZM84.1868 20.712H85.3028V30H84.1868V20.712ZM87.2337 25.032H88.3497V30H87.2337V25.032ZM87.1497 23.232C87.1497 23.056 87.2177 22.908 87.3537 22.788C87.4977 22.668 87.6537 22.608 87.8217 22.608C87.9897 22.608 88.1377 22.668 88.2657 22.788C88.4017 22.908 88.4697 23.056 88.4697 23.232C88.4697 23.416 88.4017 23.568 88.2657 23.688C88.1377 23.8 87.9897 23.856 87.8217 23.856C87.6537 23.856 87.4977 23.796 87.3537 23.676C87.2177 23.556 87.1497 23.408 87.1497 23.232ZM89.8486 27.468C89.8486 26.972 89.9646 26.524 90.1966 26.124C90.4366 25.724 90.7646 25.408 91.1806 25.176C91.5966 24.944 92.0686 24.828 92.5966 24.828C93.1406 24.828 93.6166 24.944 94.0246 25.176C94.4326 25.408 94.7486 25.724 94.9726 26.124C95.1966 26.524 95.3086 26.972 95.3086 27.468C95.3086 27.964 95.1966 28.416 94.9726 28.824C94.7486 29.224 94.4286 29.54 94.0126 29.772C93.6046 30.004 93.1286 30.12 92.5846 30.12C92.0566 30.12 91.5846 30.012 91.1686 29.796C90.7606 29.572 90.4366 29.264 90.1966 28.872C89.9646 28.472 89.8486 28.004 89.8486 27.468ZM90.9646 27.48C90.9646 27.8 91.0366 28.092 91.1806 28.356C91.3246 28.612 91.5166 28.816 91.7566 28.968C92.0046 29.12 92.2766 29.196 92.5726 29.196C92.8846 29.196 93.1606 29.12 93.4006 28.968C93.6486 28.816 93.8406 28.612 93.9766 28.356C94.1126 28.092 94.1806 27.8 94.1806 27.48C94.1806 27.16 94.1126 26.872 93.9766 26.616C93.8406 26.352 93.6486 26.144 93.4006 25.992C93.1606 25.832 92.8846 25.752 92.5726 25.752C92.2686 25.752 91.9926 25.832 91.7446 25.992C91.5046 26.152 91.3126 26.364 91.1686 26.628C91.0326 26.884 90.9646 27.168 90.9646 27.48Z" fill="#C961DE"/>
<defs>
<linearGradient id="paint0_linear_4_63" x1="19.5" y1="7.01286e-07" x2="30.8609" y2="52.7118" gradientUnits="userSpaceOnUse">
<stop stop-color="#C961DE"/>
<stop offset="0.9997" stop-color="#3055A6" stop-opacity="0.0467084"/>
<stop offset="0.9998" stop-color="#2C54A4" stop-opacity="0.0176676"/>
<stop offset="0.9999" stop-color="#2A54A4" stop-opacity="0.01"/>
<stop offset="1" stop-color="white"/>
</linearGradient>
</defs>
</svg>
