<svg width="24" height="24" viewBox="0 0 24 24" fill="none" xmlns="http://www.w3.org/2000/svg">
<g id="tabler-icon-brand-skype">
<path id="Vector" d="M7.99994 14.5C8.49994 16.5 10.3579 17 11.9999 17C14.9049 17 15.9999 15.813 15.9999 14.5C15.9999 12.997 14.0729 12 11.9999 12C9.92694 12 7.99994 11 7.99994 9.5C7.99994 8.187 9.09494 7 11.9999 7C13.6419 7 15.4999 7.5 15.9999 9.5M11.9999 2.99991C13.4088 2.9996 14.798 3.33003 16.0558 3.96462C17.3137 4.59921 18.4049 5.52023 19.2418 6.65355C20.0787 7.78687 20.6379 9.10084 20.8743 10.4897C21.1107 11.8786 21.0178 13.3035 20.6029 14.6499C20.979 15.483 21.0925 16.4109 20.9283 17.3101C20.764 18.2093 20.3298 19.0371 19.6835 19.6835C19.0372 20.3298 18.2093 20.764 17.3101 20.9282C16.4109 21.0925 15.483 20.979 14.6499 20.6029C13.0857 21.0854 11.4195 21.1322 9.8307 20.7382C8.24188 20.3441 6.79061 19.5242 5.63311 18.3667C4.47561 17.2092 3.65572 15.758 3.26169 14.1691C2.86767 12.5803 2.91442 10.9141 3.39694 9.34991C3.02051 8.51676 2.90677 7.58872 3.07088 6.68934C3.23498 5.78995 3.66913 4.96188 4.31554 4.31536C4.96195 3.66884 5.78995 3.23455 6.68931 3.0703C7.58867 2.90604 8.51673 3.01962 9.34994 3.39591C10.2085 3.13223 11.1018 2.99875 11.9999 2.99991Z" stroke="white" stroke-width="2" stroke-linecap="round" stroke-linejoin="round"/>
</g>
</svg>
