<svg width="20" height="20" viewBox="0 0 20 20" fill="none" xmlns="http://www.w3.org/2000/svg">
<circle cx="9.99996" cy="10.0001" r="8.33333" fill="#1DA1F2"/>
<path fill-rule="evenodd" clip-rule="evenodd" d="M15 6.79519C14.6324 6.95851 14.2367 7.0685 13.8217 7.11816C14.2454 6.86418 14.5707 6.46221 14.7237 5.98324C14.3277 6.21856 13.8881 6.38888 13.4211 6.48121C13.0468 6.08257 12.5132 5.83325 11.9235 5.83325C10.7906 5.83325 9.87201 6.75186 9.87201 7.88478C9.87201 8.04544 9.89034 8.20209 9.92534 8.35242C8.22012 8.26709 6.70855 7.45014 5.69662 6.20889C5.51997 6.51187 5.41897 6.86419 5.41897 7.24016C5.41897 7.95178 5.78061 8.57974 6.33158 8.94771C5.99493 8.93705 5.67895 8.84472 5.40197 8.69106V8.71673C5.40197 9.71099 6.10959 10.5399 7.04753 10.7289C6.87554 10.7756 6.69422 10.8009 6.50723 10.8009C6.37491 10.8009 6.24625 10.7879 6.12092 10.7639C6.38191 11.5789 7.13986 12.1722 8.03746 12.1888C7.33551 12.7388 6.4509 13.0671 5.48963 13.0671C5.32364 13.0671 5.16032 13.0574 5 13.0381C5.90794 13.6201 6.9862 13.96 8.14479 13.96C11.9182 13.96 13.9817 10.8339 13.9817 8.1231C13.9817 8.0341 13.9801 7.94545 13.9757 7.85779C14.377 7.5678 14.725 7.20649 15 6.79519Z" fill="white"/>
</svg>
