<svg width="342" height="701" viewBox="0 0 342 701" fill="none" xmlns="http://www.w3.org/2000/svg">
<path fill-rule="evenodd" clip-rule="evenodd" d="M149.485 267.386C149.485 267.386 138.691 265.782 135.839 277.475C125.378 281.374 128.232 293.068 128.232 293.068C128.232 293.068 122.978 302.254 133.414 306.96C134.249 316.371 144.685 314.66 144.685 314.66C144.685 314.66 147.19 321.934 155.121 318.938C163.679 325.76 179.807 324.391 185.534 316.052C196.888 324.738 216.645 314.135 214.167 306.205C227.427 305.382 233.857 290.968 226.087 278.723C232.055 269.038 225.251 263.322 225.251 263.322C225.251 263.322 227.13 241.075 212.103 238.08C204.379 226.101 187.682 235.727 187.682 235.727C187.682 235.727 176.619 233.374 172.654 243.214C160.293 245.163 160.873 252.127 159.922 257.974C148.859 258.616 149.485 267.386 149.485 267.386Z" fill="#253368"/>
<path fill-rule="evenodd" clip-rule="evenodd" d="M183.786 256.524C192.452 258.082 195.087 251.362 195.087 251.362C195.087 251.362 198.663 241.895 199.58 247.706C200.065 250.795 204.725 246.697 206.867 249.989C208.309 252.205 204.704 255.06 209.389 260.969C212.103 264.391 201.397 267.122 208.002 273.431C208.002 273.431 203.306 281.131 211.371 283.643L212.226 292.673C212.724 297.928 208.689 302.475 203.538 302.467C198.627 302.459 194.691 298.295 194.839 293.264L195.165 282.255C182.642 282.255 182.031 264.614 183.786 256.524Z" fill="#FFC999"/>
<path d="M198.977 265.914C199.194 265.691 199.546 265.691 199.763 265.913C199.98 266.136 199.98 266.497 199.763 266.719C199.481 267.008 198.971 267.422 198.253 267.831C196.838 268.638 195.214 269.058 193.427 268.88C193.121 268.85 192.897 268.571 192.927 268.258C192.957 267.944 193.228 267.715 193.534 267.745C195.079 267.899 196.483 267.536 197.712 266.835C198.075 266.628 198.394 266.407 198.666 266.187L198.807 266.07C198.888 265.999 198.945 265.946 198.977 265.914Z" fill="#F5222D"/>
<path d="M192.564 257.578L192.563 257.424C192.58 257.23 192.733 257.072 192.929 257.058C193.125 257.043 193.298 257.178 193.341 257.368L193.352 257.45L193.353 257.468C193.366 257.858 193.298 258.453 193.079 259.229C192.786 260.266 192.279 261.401 191.515 262.617L191.377 262.831L191.597 262.97L192.132 263.304C192.65 263.623 193.118 263.901 193.538 264.14L193.744 264.257C193.951 264.372 194.132 264.471 194.288 264.553L194.608 264.716C194.806 264.81 194.893 265.051 194.802 265.254C194.71 265.457 194.475 265.546 194.277 265.452L194.109 265.368L193.801 265.207C193.713 265.16 193.62 265.109 193.52 265.053L193.365 264.967C192.611 264.545 191.694 263.992 190.61 263.296C190.418 263.172 190.366 262.91 190.495 262.721C191.421 261.361 192.006 260.114 192.32 259.003C192.498 258.37 192.563 257.889 192.564 257.578Z" fill="#DD936F"/>
<path d="M204.636 256.95C204.931 256.95 205.171 257.195 205.171 257.498C205.171 259.604 203.623 261.329 201.69 261.329C199.759 261.329 198.211 259.604 198.211 257.498C198.211 257.195 198.451 256.95 198.746 256.95C199.041 256.95 199.28 257.195 199.28 257.498C199.28 259.019 200.37 260.234 201.69 260.234C203.011 260.234 204.102 259.018 204.102 257.498C204.102 257.195 204.341 256.95 204.636 256.95Z" fill="#253368"/>
<path d="M190.552 257.326C190.832 257.326 191.059 257.559 191.059 257.846C191.059 259.927 189.669 261.65 187.902 261.65C186.134 261.65 184.744 259.928 184.744 257.846C184.744 257.559 184.971 257.326 185.252 257.326C185.532 257.326 185.759 257.559 185.759 257.846C185.759 259.392 186.742 260.61 187.902 260.61C189.061 260.61 190.044 259.392 190.044 257.846C190.044 257.559 190.272 257.326 190.552 257.326Z" fill="#253368"/>
<path d="M198.542 250.924C200.585 250.251 202.746 250.162 204.788 251.044C205.164 251.207 205.53 251.401 205.885 251.629C206.135 251.789 206.211 252.127 206.055 252.383C205.898 252.64 205.569 252.718 205.318 252.558C205.011 252.361 204.696 252.194 204.372 252.054C202.601 251.289 200.69 251.367 198.869 251.967C198.639 252.043 198.426 252.122 198.232 252.203L198.045 252.283C197.904 252.346 197.808 252.393 197.763 252.417C197.502 252.559 197.179 252.456 197.041 252.189C196.903 251.921 197.003 251.59 197.264 251.448C197.516 251.313 197.954 251.117 198.542 250.924Z" fill="#253368"/>
<path d="M202.65 279.907C202.842 279.8 203.082 279.873 203.186 280.069C203.291 280.266 203.22 280.512 203.028 280.619C200.486 282.037 197.842 282.751 195.182 282.789C194.964 282.792 194.785 282.613 194.782 282.389C194.779 282.165 194.953 281.982 195.172 281.978C197.702 281.943 200.221 281.263 202.65 279.907Z" fill="#DD936F"/>
<path fill-rule="evenodd" clip-rule="evenodd" d="M172.596 380.383C166.814 379.507 162.818 373.994 163.673 368.068L171.994 310.32C172.847 304.394 178.227 300.299 184.01 301.174C189.791 302.05 193.786 307.563 192.934 313.489L184.611 371.238C183.758 377.163 178.378 381.258 172.596 380.383Z" fill="#FFC999"/>
<path fill-rule="evenodd" clip-rule="evenodd" d="M189.405 337.969L192.933 313.489C193.784 307.588 189.768 302.046 184.009 301.174C178.251 300.303 172.845 304.419 171.994 310.32L168.499 334.567L189.405 337.969Z" fill="white"/>
<path d="M184.358 300.897C190.221 301.784 194.329 307.369 193.58 313.368L193.551 313.583L190.023 338.063C189.999 338.223 189.867 338.338 189.715 338.342L189.657 338.338L168.753 334.936C168.579 334.908 168.46 334.74 168.488 334.562C168.512 334.404 168.644 334.29 168.795 334.287L168.853 334.291L189.439 337.64L192.921 313.487C193.735 307.835 189.947 302.523 184.474 301.577L184.265 301.543C184.091 301.517 183.971 301.351 183.997 301.172C184.019 301.014 184.15 300.899 184.301 300.894L184.358 300.897Z" fill="#4E5C93"/>
<path fill-rule="evenodd" clip-rule="evenodd" d="M135.699 361.355C135.616 363.472 137.172 365.282 139.231 365.462L178.986 368.97C182.649 369.168 185.766 366.26 185.914 362.503C186.064 358.713 183.136 355.541 179.435 355.482L139.367 357.558C137.37 357.661 135.78 359.307 135.699 361.355Z" fill="#FFC999"/>
<path fill-rule="evenodd" clip-rule="evenodd" d="M131.805 355.991C131.805 355.991 138.945 355.412 140.773 359.313C142.429 362.846 139.19 364.965 139.19 364.965C139.19 364.965 136.293 367.592 132.228 369.028C129.55 369.972 124.278 371.241 123.604 369.866C122.724 368.073 128.773 366.994 128.547 365.553C128.317 364.073 127.05 364.202 124.078 363.522C122.222 363.097 120.228 363.427 118.72 362.76C115.774 361.455 121.023 355.946 131.805 355.991Z" fill="#FFC999"/>
<path d="M119.113 360.808C121.781 360.14 124.193 360.253 126.239 360.847C126.61 360.955 126.937 361.071 127.218 361.187L127.399 361.265C127.478 361.3 127.537 361.329 127.577 361.35C127.771 361.452 127.848 361.696 127.748 361.896C127.649 362.095 127.41 362.173 127.216 362.071L127.077 362.005C127.033 361.985 126.981 361.963 126.921 361.938C126.666 361.833 126.366 361.726 126.024 361.627C124.103 361.069 121.828 360.962 119.3 361.595C119.088 361.648 118.875 361.515 118.823 361.298C118.771 361.08 118.901 360.861 119.113 360.808Z" fill="#DD936F"/>
<path d="M122.256 358.558C124.226 358.227 126.366 358.24 128.433 358.829C128.644 358.889 128.767 359.112 128.708 359.327C128.65 359.543 128.432 359.669 128.222 359.609C126.279 359.056 124.25 359.044 122.384 359.357C122.188 359.39 122.007 359.425 121.844 359.46L121.686 359.495C121.566 359.523 121.485 359.544 121.445 359.555C121.235 359.615 121.017 359.488 120.959 359.273C120.901 359.057 121.024 358.834 121.234 358.774L121.438 358.722L121.512 358.705C121.73 358.655 121.979 358.605 122.256 358.558Z" fill="#DD936F"/>
<path d="M124.261 356.75C126.402 356.503 128.155 356.576 129.523 356.851L129.817 356.914C130.135 356.988 130.36 357.059 130.493 357.113C130.697 357.195 130.796 357.43 130.716 357.639C130.636 357.847 130.407 357.949 130.204 357.867L130.096 357.828C129.945 357.778 129.704 357.712 129.371 357.646C128.082 357.387 126.41 357.317 124.349 357.555C124.132 357.58 123.936 357.42 123.912 357.197C123.888 356.975 124.044 356.775 124.261 356.75Z" fill="#DD936F"/>
<path fill-rule="evenodd" clip-rule="evenodd" d="M115.042 538.535L90.1471 440.411C88.3536 433.342 92.657 426.163 99.6206 424.608C106.583 423.052 113.411 427.744 114.651 434.937L130.444 535.452C131.248 540.12 129.734 543.93 125.214 544.94C120.696 545.949 116.206 543.122 115.042 538.535Z" fill="#FFC999"/>
<path fill-rule="evenodd" clip-rule="evenodd" d="M197.169 389.632C193.507 381.887 184.341 378.752 176.875 382.69L96.5953 425.017C90.4122 428.279 87.8973 436 90.9313 442.412C93.9642 448.825 101.437 451.585 107.764 448.63L189.916 410.26C197.557 406.692 200.832 397.375 197.169 389.632Z" fill="#FFC999"/>
<path fill-rule="evenodd" clip-rule="evenodd" d="M116.971 546.208L132.396 543.275L128.738 518.106L111.028 521.472L116.971 546.208Z" fill="white"/>
<path d="M128.376 522.797C128.656 522.744 128.925 522.933 128.977 523.22C129.024 523.482 128.873 523.736 128.632 523.817L128.564 523.835L112.215 526.943C111.936 526.996 111.667 526.807 111.615 526.521C111.568 526.258 111.719 526.004 111.96 525.923L112.028 525.905L128.376 522.797Z" fill="#E4EBF7"/>
<path fill-rule="evenodd" clip-rule="evenodd" d="M115.255 545.515L132.214 542.291L138.834 573.965L100.622 581.229L99.6431 576.36C99.2894 574.568 100.239 572.774 101.898 572.102L111.488 567.117L116.149 563.085C117.554 561.871 118.193 559.97 117.811 558.128C116.987 554.169 115.601 547.454 115.255 545.515Z" fill="#4E5C93"/>
<path fill-rule="evenodd" clip-rule="evenodd" d="M138.653 575.072L100.557 582.315C100.195 582.384 99.8483 582.139 99.7811 581.769L98.9886 577.39C98.9225 577.02 99.1599 576.665 99.5216 576.596L137.618 569.354C137.979 569.285 138.326 569.529 138.392 569.899L139.185 574.278C139.252 574.648 139.014 575.004 138.653 575.072Z" fill="#CCD7EE"/>
<path fill-rule="evenodd" clip-rule="evenodd" d="M99.5219 576.596C99.0219 573.836 100.55 571.113 103.129 570.167L111.485 567.102L113.302 573.876L99.5219 576.596Z" fill="#CCD7EE"/>
<path d="M137.569 569.088C137.712 569.061 137.85 569.158 137.876 569.305C137.899 569.433 137.83 569.557 137.716 569.604L137.665 569.619L99.5699 576.862C99.4268 576.889 99.2893 576.792 99.2628 576.646C99.2395 576.517 99.309 576.393 99.4226 576.346L99.4738 576.331L137.569 569.088Z" fill="#A3B5D6"/>
<path d="M117.783 556.477L117.937 556.484C117.982 556.487 118.033 556.491 118.09 556.496C118.323 556.515 118.582 556.547 118.861 556.593C119.657 556.723 120.454 556.943 121.203 557.275C121.803 557.541 122.348 557.869 122.823 558.266C123.163 558.551 123.023 559.112 122.591 559.194C122.171 559.274 121.56 559.476 120.812 559.774L120.605 559.858C120.391 559.946 120.169 560.039 119.941 560.138C119.602 560.286 119.26 560.44 118.923 560.597L118.747 560.679L118.791 560.704C119.473 561.093 120.155 561.572 120.806 562.148L121.083 562.401C121.415 562.714 121.221 563.283 120.771 563.316C120.255 563.355 119.663 563.461 119.011 563.626C118.377 563.787 117.701 564.001 117.005 564.253C116.859 564.306 116.715 564.36 116.572 564.415L116.218 564.552L116.325 564.592C116.555 564.684 116.781 564.792 117.002 564.919L117.222 565.053C117.568 565.274 117.891 565.538 118.185 565.848C118.383 566.057 118.378 566.392 118.174 566.595C117.97 566.798 117.644 566.793 117.446 566.584C117.211 566.336 116.953 566.125 116.676 565.948C115.92 565.463 115.148 565.282 114.584 565.268L114.466 565.267L114.396 565.265C113.893 565.218 113.748 564.494 114.233 564.262L114.422 564.173C114.572 564.105 114.743 564.028 114.933 563.946C115.475 563.712 116.058 563.477 116.661 563.258C117.387 562.995 118.094 562.772 118.763 562.601C118.965 562.55 119.161 562.504 119.353 562.464L119.505 562.433L119.354 562.318C119.09 562.124 118.824 561.946 118.557 561.784L118.29 561.627C118.105 561.521 117.929 561.428 117.767 561.349L117.609 561.274C117.49 561.218 117.408 561.184 117.369 561.169C116.945 561.007 116.916 560.405 117.322 560.201L117.814 559.959L117.986 559.877C118.492 559.635 119.019 559.393 119.539 559.166L120 558.97C120.076 558.939 120.15 558.908 120.224 558.878L120.66 558.704C120.731 558.676 120.8 558.65 120.868 558.624L121.27 558.478L121.224 558.452L121.013 558.345L120.795 558.244C120.131 557.95 119.415 557.753 118.698 557.635C118.509 557.604 118.331 557.58 118.166 557.563L117.827 557.535C117.797 557.533 117.774 557.532 117.758 557.532C117.473 557.525 117.248 557.283 117.255 556.992C117.262 556.7 117.498 556.47 117.783 556.477Z" fill="#E4EBF7"/>
<path d="M118.758 551.548C118.042 551.612 117.441 551.697 116.999 551.777L116.826 551.81C116.769 551.821 116.713 551.843 116.663 551.873C116.062 552.236 115.774 552.71 115.881 553.242C115.958 553.623 116.214 553.925 116.582 554.192C116.806 554.355 117.024 554.472 117.181 554.541L117.241 554.579L117.783 554.891C117.956 554.989 118.141 555.092 118.336 555.2C119.265 555.714 120.243 556.228 121.225 556.709C121.87 557.024 122.495 557.314 123.095 557.574C125.107 558.446 126.721 558.938 127.844 558.937C129.455 558.937 130.116 557.872 129.471 556.052C128.492 553.292 125.964 551.904 122.483 551.55C121.266 551.426 120.004 551.438 118.758 551.548ZM122.381 552.6C125.428 552.91 127.572 554.051 128.435 556.233L128.503 556.413C128.912 557.566 128.716 557.881 127.844 557.882C126.9 557.882 125.387 557.421 123.496 556.602C122.911 556.348 122.3 556.065 121.669 555.756C120.703 555.284 119.74 554.778 118.825 554.271L118.282 553.967L117.642 553.598C117.491 553.528 117.332 553.443 117.177 553.331C117.003 553.204 116.901 553.084 116.89 553.028L116.89 553.021C116.895 552.999 116.93 552.952 117.055 552.866L117.112 552.829L117.326 552.791C117.722 552.724 118.24 552.654 118.847 552.6C120.034 552.495 121.234 552.483 122.381 552.6Z" fill="#E4EBF7"/>
<path fill-rule="evenodd" clip-rule="evenodd" d="M222.119 399.28C218.018 391.77 209.264 388.862 202.733 392.842L132.516 435.63C127.108 438.925 125.501 446.521 128.897 452.74C132.293 458.958 139.449 461.529 145.019 458.528L217.332 419.581C224.058 415.958 226.219 406.79 222.119 399.28Z" fill="#FFC999"/>
<path fill-rule="evenodd" clip-rule="evenodd" d="M103.127 553.993C98.745 552.477 96.3123 547.684 97.6168 543.137L125.518 445.867C127.528 438.859 134.821 434.972 141.573 437.308C148.325 439.645 151.825 447.267 149.28 454.089L113.93 548.782C112.277 553.21 107.509 555.51 103.127 553.993Z" fill="#FFC999"/>
<path fill-rule="evenodd" clip-rule="evenodd" d="M95.4202 550.191L111.248 556.35L121.471 530.563L103.302 523.491L95.4202 550.191Z" fill="white"/>
<path d="M100.709 531.028C100.8 530.778 101.057 530.64 101.304 530.697L101.371 530.718L116.952 536.672C117.219 536.774 117.354 537.078 117.255 537.351C117.164 537.601 116.907 537.739 116.66 537.681L116.593 537.661L101.011 531.707C100.745 531.605 100.609 531.301 100.709 531.028Z" fill="#E4EBF7"/>
<path fill-rule="evenodd" clip-rule="evenodd" d="M96.6033 546.287L112.765 552.463L102.545 583.114L66.1289 569.199L67.735 564.509C68.3302 562.786 70.0445 561.748 71.804 562.046L82.5309 562.827L88.5516 561.827C90.3651 561.525 91.8671 560.232 92.4642 558.45C93.7457 554.622 95.927 548.131 96.6033 546.287Z" fill="#4E5C93"/>
<path fill-rule="evenodd" clip-rule="evenodd" d="M65.2257 570.263C64.8821 570.132 64.7067 569.738 64.835 569.386L66.3529 565.214C66.4812 564.861 66.8639 564.682 67.2076 564.814L103.513 578.685C103.857 578.817 104.032 579.209 103.904 579.561L102.386 583.735C102.258 584.088 101.875 584.266 101.531 584.135L65.2257 570.263Z" fill="#CCD7EE"/>
<path fill-rule="evenodd" clip-rule="evenodd" d="M66.5396 564.385C67.4964 561.756 71.1756 560.226 73.8618 560.774L81.5658 562.55L79.7223 569.317L66.5396 564.385Z" fill="#CCD7EE"/>
<path d="M66.5499 564.676C66.5944 564.554 66.7161 564.484 66.8372 564.504L66.8888 564.518L103.193 578.389C103.329 578.441 103.398 578.597 103.347 578.737C103.303 578.859 103.181 578.929 103.06 578.909L103.008 578.895L66.7047 565.024C66.5684 564.972 66.499 564.816 66.5499 564.676Z" fill="#A3B5D6"/>
<path d="M90.7525 559.465C90.9583 559.264 91.2843 559.272 91.4806 559.483L91.5822 559.596C91.6789 559.708 91.8045 559.862 91.9498 560.053C92.2862 560.497 92.6096 560.993 92.8945 561.53C93.3908 562.466 93.7176 563.429 93.8138 564.399C93.8581 564.846 93.3718 565.142 93.0102 564.888C92.5986 564.599 91.8893 564.24 90.9755 563.845C90.5341 563.654 90.0655 563.463 89.5887 563.278L89.2654 563.154L89.2908 563.241C89.3466 563.444 89.3991 563.655 89.4472 563.874L89.516 564.21C89.6309 564.809 89.7058 565.429 89.7317 566.065C89.7506 566.527 89.2221 566.789 88.8807 566.487C88.3687 566.034 87.6899 565.572 86.8828 565.113C86.3656 564.819 85.8158 564.537 85.252 564.27L84.8043 564.063L84.8457 564.153C85.1168 564.776 85.2793 565.449 85.3017 566.165L85.304 566.405C85.3003 566.697 85.0668 566.93 84.7824 566.926C84.498 566.922 84.2704 566.683 84.2741 566.392C84.283 565.681 84.1197 565.02 83.8279 564.415C83.6748 564.097 83.4963 563.816 83.3092 563.576L83.2089 563.451C83.1484 563.379 83.1016 563.329 83.0735 563.302C82.6656 562.91 83.0752 562.226 83.6013 562.421L83.9367 562.551L84.3502 562.72C84.4945 562.78 84.645 562.844 84.8006 562.912C85.6911 563.299 86.5718 563.729 87.3827 564.19C87.7666 564.408 88.125 564.629 88.455 564.85L88.593 564.945L88.5639 564.744L88.5053 564.413C88.4058 563.893 88.2792 563.42 88.1398 563.002L88.0437 562.729C88.0058 562.626 87.975 562.551 87.9539 562.504C87.7657 562.082 88.1604 561.635 88.5882 561.784L89.1342 561.981C89.24 562.02 89.3505 562.062 89.4649 562.105C90.1192 562.351 90.7706 562.611 91.3756 562.872C91.7502 563.034 92.093 563.19 92.4006 563.341L92.5688 563.424L92.5223 563.272C92.414 562.942 92.2774 562.61 92.1156 562.281L91.9895 562.034C91.7332 561.551 91.4404 561.102 91.1364 560.701L90.9915 560.514C90.8796 560.374 90.7912 560.271 90.7355 560.212C90.5391 560.001 90.5468 559.667 90.7525 559.465Z" fill="#E4EBF7"/>
<path d="M93.0831 556.712C92.0023 556.703 91.5127 557.347 91.7058 558.219C91.7514 558.425 91.8312 558.632 91.9352 558.84C92.0287 559.026 92.1221 559.177 92.1895 559.272L92.2783 559.441L92.6205 560.049C92.7429 560.264 92.8738 560.491 93.0124 560.728C93.6725 561.857 94.3722 562.986 95.0817 564.041C95.644 564.878 96.1899 565.634 96.7123 566.291C97.821 567.684 98.7839 568.589 99.6184 568.913C100.799 569.372 101.662 568.681 101.971 567.049C102.521 564.144 101.024 561.606 98.1786 559.459C97.1897 558.712 96.0964 558.06 94.9712 557.503C94.4051 557.222 93.9137 557.005 93.5344 556.853L93.2543 556.744C93.1994 556.724 93.1415 556.713 93.0831 556.712ZM92.871 557.769L92.9852 557.767L93.3013 557.894C93.635 558.032 94.0509 558.219 94.5229 558.453C95.5948 558.984 96.6347 559.604 97.5677 560.309C100.127 562.241 101.418 564.428 100.96 566.848C100.76 567.901 100.485 568.121 99.9837 567.926C99.3694 567.687 98.5107 566.881 97.5106 565.623C97.0073 564.991 96.4775 564.257 95.9299 563.443C95.2341 562.407 94.5456 561.297 93.8959 560.185L93.5101 559.517L93.08 558.749C93.0715 558.733 93.0639 558.72 93.0574 558.707C92.9851 558.598 92.9182 558.491 92.8515 558.358C92.7838 558.222 92.7343 558.094 92.7102 557.985L92.6938 557.904C92.6772 557.801 92.7039 557.774 92.871 557.769Z" fill="#E4EBF7"/>
<path fill-rule="evenodd" clip-rule="evenodd" d="M177.233 314.609C175.417 319.445 172.016 327.788 171.859 333.165C171.606 341.882 177.508 347.975 177.508 347.975C177.508 347.975 177.407 345.423 179.324 367.841C204.822 370.746 220.604 364.886 220.604 364.886L219.746 358.966L222.975 344.632C222.975 344.632 225.141 339.232 229.535 327.212C232.59 318.857 231.723 308.799 230.911 303.444C230.563 301.15 228.874 299.311 226.658 298.824C218.918 297.124 216.036 297.241 216.036 297.241L215.002 292.146C214.826 291.273 214.049 290.668 213.182 290.723L194.644 291.921C193.847 291.973 193.186 292.57 193.037 293.374L192.013 298.892L180.682 301.938C178.903 302.416 177.638 304.03 177.566 305.913L177.233 314.609Z" fill="white"/>
<path d="M210.839 297.52C211.015 297.508 211.166 297.645 211.177 297.825C211.187 297.985 211.083 298.125 210.936 298.163L210.879 298.171L194.188 299.251C194.012 299.262 193.861 299.125 193.85 298.945C193.84 298.785 193.944 298.645 194.091 298.608L194.147 298.599L210.839 297.52Z" fill="#4E5C93"/>
<path d="M215.875 295.827C216.032 295.661 216.291 295.657 216.453 295.818C216.597 295.961 216.616 296.187 216.508 296.352L216.462 296.41L195.255 318.812C195.042 319.038 194.68 318.949 194.579 318.668L194.561 318.605L190.688 299.23C190.643 299.003 190.785 298.782 191.006 298.735C191.205 298.694 191.4 298.808 191.47 298.996L191.489 299.062L195.207 317.66L215.875 295.827Z" fill="#CCD7EE"/>
<path fill-rule="evenodd" clip-rule="evenodd" d="M187.802 322.181C186.149 325.5 187.23 329.458 190.217 331.023C193.205 332.587 196.967 331.164 198.622 327.845C200.277 324.526 199.196 320.568 196.208 319.004C193.22 317.439 189.457 318.862 187.802 322.181Z" fill="#CCD7EE"/>
<path fill-rule="evenodd" clip-rule="evenodd" d="M187.137 322.208C185.483 325.527 186.564 329.486 189.551 331.05C192.54 332.613 196.302 331.191 197.956 327.872C199.61 324.553 198.529 320.594 195.542 319.03C192.554 317.466 188.79 318.89 187.137 322.208Z" fill="#E4EBF7"/>
<path fill-rule="evenodd" clip-rule="evenodd" d="M188.346 322.69C187.062 325.267 187.901 328.341 190.221 329.555C192.542 330.769 195.463 329.664 196.747 327.088C198.031 324.51 197.192 321.437 194.873 320.223C192.553 319.009 189.631 320.113 188.346 322.69Z" fill="#8352FD"/>
<path d="M230.882 303.119C231.057 303.102 231.212 303.234 231.228 303.414L231.333 304.671L231.411 305.683C231.462 306.375 231.513 307.099 231.562 307.845C231.656 309.282 231.734 310.69 231.791 312.031L231.818 312.696C231.934 315.754 231.926 318.209 231.762 319.848C231.591 321.559 230.754 324.385 229.41 328.044L229.278 328.4C229.016 329.106 228.739 329.834 228.448 330.581C227.865 332.076 227.249 333.592 226.627 335.078L225.892 336.809L225.19 338.421L225.136 338.536L219.782 359.107L220.74 365.148C220.763 365.291 220.691 365.43 220.569 365.493L220.514 365.515L220.088 365.634L219.981 365.662C219.546 365.779 219.034 365.909 218.45 366.048C216.782 366.446 214.861 366.845 212.715 367.216C202.387 369.005 190.971 369.546 179.225 368.089C179.073 368.07 178.955 367.943 178.945 367.785L178.863 366.774C178.764 365.654 178.585 363.736 178.342 361.182L177.51 352.562L177.142 348.798L176.942 348.465L176.703 348.057C176.578 347.843 176.447 347.612 176.31 347.367C175.657 346.199 175.004 344.936 174.394 343.622C173.571 341.848 172.892 340.12 172.406 338.489C171.964 337.003 171.692 335.631 171.616 334.395C171.423 331.262 171.669 328.791 172.396 326.25C172.782 324.899 173.305 323.512 174.074 321.749L174.388 321.042C174.553 320.675 174.785 320.168 175.042 319.608L176.968 315.445L176.839 310.171C176.835 310.01 176.944 309.874 177.092 309.843L177.149 309.836C177.305 309.832 177.438 309.944 177.469 310.096L177.476 310.154L177.607 315.507L177.577 315.654L175.077 321.072C174.966 321.314 174.875 321.516 174.812 321.661C173.967 323.571 173.41 325.027 173.007 326.434C172.302 328.9 172.064 331.295 172.252 334.354C172.325 335.534 172.587 336.858 173.016 338.299C173.492 339.896 174.159 341.594 174.97 343.342C175.572 344.639 176.217 345.888 176.863 347.042L177.125 347.507C177.21 347.655 177.292 347.796 177.371 347.93L177.72 348.513L177.769 348.656L179.223 363.731C179.356 365.138 179.455 366.217 179.515 366.92L179.561 367.472L180.097 367.537C191.232 368.834 202.056 368.335 211.907 366.692L212.609 366.572C214.564 366.234 216.33 365.873 217.886 365.511L218.305 365.412C218.788 365.297 219.219 365.189 219.598 365.089L220.064 364.964L219.142 359.141L219.149 359.005L224.538 338.317L225.058 337.129C225.18 336.848 225.307 336.551 225.44 336.24L225.575 335.925C226.352 334.096 227.13 332.201 227.856 330.339C228.146 329.595 228.422 328.87 228.683 328.168L229.052 327.159C230.237 323.869 230.975 321.318 231.128 319.782L231.165 319.364C231.283 317.844 231.286 315.704 231.195 313.097L231.181 312.722C231.123 311.19 231.035 309.56 230.926 307.888L230.852 306.791C230.827 306.431 230.801 306.078 230.775 305.733L230.594 303.473C230.578 303.294 230.707 303.135 230.882 303.119Z" fill="#4E5C93"/>
<path fill-rule="evenodd" clip-rule="evenodd" d="M213.581 371.719C228.815 371.719 237.277 426.074 247.788 446.567C246.295 450.524 239.128 456.982 239.128 456.982C239.128 456.982 239.453 460.307 239.659 462.307C231.507 467.735 216.7 469.484 216.7 469.484L216.363 472.271C192.094 480.494 162.345 466.493 162.345 466.493C162.345 466.493 161.835 465.823 162.49 463.683C152.027 462.349 131.094 446.139 131.094 446.139L134.001 440.666L111.457 411.328C111.457 411.328 155.337 384.134 167.879 376.345C179.165 369.336 177.189 368.25 177.189 368.25C177.189 368.25 197.921 371.719 213.581 371.719Z" fill="#4E5C93"/>
<path d="M144.987 424.693C145.108 424.51 145.35 424.462 145.529 424.586C145.688 424.696 145.743 424.905 145.668 425.079L145.634 425.142L132.041 445.733L132.185 445.871L132.635 446.289L132.804 446.444C133.634 447.197 134.616 448.036 135.743 448.941C138.969 451.529 142.717 454.117 146.947 456.532C151.78 459.293 156.939 461.649 162.393 463.476C162.598 463.545 162.71 463.771 162.643 463.981C162.576 464.191 162.355 464.306 162.15 464.237C156.646 462.394 151.442 460.017 146.566 457.232C142.299 454.795 138.518 452.184 135.262 449.572C134.235 448.748 133.328 447.977 132.543 447.275L132.286 447.043C132.109 446.883 131.946 446.733 131.798 446.594L131.332 446.15C131.301 446.119 131.276 446.094 131.258 446.076C131.14 445.958 131.109 445.778 131.174 445.628L131.208 445.566L144.987 424.693Z" fill="#253368"/>
<path d="M225.323 409.498C225.51 409.443 225.704 409.538 225.783 409.713L225.806 409.774L240.375 462.645C240.426 462.829 240.342 463.024 240.175 463.111L240.015 463.193C239.904 463.248 239.755 463.321 239.571 463.41L239.131 463.619C238.75 463.798 238.328 463.989 237.868 464.191C236.033 464.998 233.972 465.804 231.734 466.556C226.851 468.197 221.826 469.349 216.844 469.796C216.629 469.816 216.439 469.653 216.42 469.432C216.402 469.212 216.561 469.018 216.776 468.999C221.692 468.557 226.661 467.418 231.49 465.795C233.706 465.05 235.745 464.252 237.561 463.455L238.086 463.221C238.34 463.107 238.58 462.996 238.806 462.891L239.437 462.589L239.534 462.541L225.053 409.992C225.001 409.8 225.093 409.602 225.264 409.52L225.323 409.498Z" fill="#253368"/>
<path d="M208.84 365.042C209.034 365.025 209.207 365.156 209.253 365.342L209.265 365.434L210.095 375.635C210.228 377.302 210.367 379.044 210.51 380.854L210.942 386.341C211.588 394.613 212.23 403.064 212.846 411.483L213.254 417.089C213.555 421.274 213.844 425.373 214.119 429.371L214.532 435.452C215.501 449.92 216.242 462.492 216.705 472.65C216.713 472.845 216.584 473.019 216.398 473.06C202.27 476.23 187.358 474.918 173.058 470.806C170.021 469.933 167.261 468.998 164.83 468.062L164.21 467.82C163.71 467.623 163.25 467.436 162.832 467.26L162.27 467.02L161.796 466.809C161.636 466.735 161.546 466.561 161.57 466.387L161.585 466.323L188.801 378.976C188.867 378.765 189.087 378.649 189.292 378.716C189.477 378.777 189.588 378.966 189.56 379.156L189.546 379.22L162.437 466.222L162.886 466.416L163.381 466.625C163.811 466.803 164.282 466.992 164.793 467.191L165.105 467.312C167.516 468.24 170.255 469.169 173.269 470.035C187.241 474.052 201.798 475.376 215.594 472.418L215.908 472.348L215.738 468.784C215.285 459.609 214.633 448.721 213.815 436.444L213.572 432.829L213.221 427.708C212.981 424.257 212.732 420.734 212.474 417.147L212.067 411.543C211.451 403.125 210.809 394.676 210.163 386.405L209.259 374.99L208.484 365.475C208.466 365.254 208.625 365.061 208.84 365.042Z" fill="#253368"/>
<path d="M199.367 365.494C199.561 365.506 199.714 365.66 199.734 365.852L199.736 365.917L195.716 439.441C195.704 439.662 195.519 439.831 195.304 439.819C195.11 439.807 194.957 439.653 194.937 439.461L194.936 439.396L198.955 365.872C198.967 365.651 199.152 365.482 199.367 365.494Z" fill="#253368"/>
<path d="M183.084 373.095C183.21 372.915 183.454 372.874 183.629 373.003C183.785 373.118 183.834 373.328 183.755 373.5L183.719 373.562L154.03 415.96C153.904 416.139 153.66 416.181 153.484 416.052C153.329 415.937 153.28 415.727 153.359 415.555L153.395 415.493L183.084 373.095Z" fill="#253368"/>
<path fill-rule="evenodd" clip-rule="evenodd" d="M144.657 387.158L192.903 384.617L147.389 364.921L107.232 371.051L144.657 387.158Z" fill="#253368"/>
<path fill-rule="evenodd" clip-rule="evenodd" d="M143.22 383.574L178.26 381.727L146.023 367.446L116.039 371.876L143.22 383.574Z" fill="#4E5C93"/>
<path fill-rule="evenodd" clip-rule="evenodd" d="M192.614 387.123L192.911 384.634L143.713 386.829L144.257 389.58L192.614 387.123Z" fill="white"/>
<path d="M139.214 368.952C139.256 368.863 139.352 368.818 139.443 368.84L139.487 368.856L165.554 381.993C165.655 382.044 165.697 382.169 165.647 382.273C165.605 382.362 165.509 382.406 165.418 382.385L165.374 382.369L139.307 369.232C139.206 369.181 139.164 369.055 139.214 368.952Z" fill="#CCD7EE"/>
<path d="M142.964 367.865C143.006 367.776 143.101 367.73 143.192 367.75L143.236 367.765L172.442 381.867C172.544 381.916 172.588 382.041 172.54 382.146C172.499 382.235 172.403 382.281 172.313 382.261L172.268 382.246L143.062 368.144C142.96 368.095 142.916 367.97 142.964 367.865Z" fill="#CCD7EE"/>
<path d="M138.544 371.434C138.588 371.345 138.685 371.303 138.775 371.325L138.819 371.342L160.671 382.743C160.771 382.796 160.811 382.922 160.76 383.025C160.716 383.113 160.619 383.156 160.529 383.134L160.485 383.117L138.633 371.716C138.533 371.663 138.493 371.537 138.544 371.434Z" fill="#CCD7EE"/>
<path d="M132.237 371.393C132.281 371.305 132.378 371.262 132.468 371.285L132.512 371.302L154.364 382.704C154.464 382.756 154.504 382.882 154.453 382.986C154.409 383.074 154.313 383.117 154.223 383.094L154.178 383.077L132.327 371.675C132.226 371.623 132.186 371.496 132.237 371.393Z" fill="#CCD7EE"/>
<path d="M126.371 371.773C126.415 371.685 126.511 371.642 126.601 371.664L126.646 371.681L148.497 383.082C148.598 383.135 148.638 383.261 148.587 383.364C148.543 383.453 148.446 383.495 148.356 383.473L148.312 383.456L126.46 372.055C126.359 372.002 126.319 371.876 126.371 371.773Z" fill="#CCD7EE"/>
<path d="M172.781 379.585C172.894 379.583 172.987 379.675 172.989 379.791C172.991 379.89 172.925 379.974 172.835 379.998L172.788 380.004L142.912 380.528C142.799 380.53 142.706 380.437 142.704 380.322C142.703 380.223 142.768 380.138 142.858 380.115L142.905 380.109L172.781 379.585Z" fill="#CCD7EE"/>
<path d="M166.484 376.51C166.596 376.508 166.69 376.6 166.692 376.716C166.693 376.815 166.627 376.899 166.537 376.922L166.491 376.929L136.615 377.453C136.503 377.455 136.409 377.363 136.408 377.248C136.406 377.148 136.472 377.064 136.562 377.041L136.608 377.035L166.484 376.51Z" fill="#CCD7EE"/>
<path d="M158.539 374.052C158.652 374.05 158.745 374.142 158.747 374.258C158.748 374.357 158.683 374.442 158.593 374.465L158.546 374.471L128.67 374.995C128.557 374.997 128.464 374.905 128.462 374.789C128.46 374.69 128.526 374.606 128.616 374.582L128.663 374.576L158.539 374.052Z" fill="#CCD7EE"/>
<path d="M153.487 369.273C153.6 369.271 153.693 369.364 153.695 369.479C153.696 369.578 153.631 369.663 153.541 369.686L153.494 369.692L123.618 370.217C123.505 370.219 123.412 370.127 123.41 370.011C123.408 369.912 123.474 369.828 123.564 369.805L123.611 369.798L153.487 369.273Z" fill="#CCD7EE"/>
<path fill-rule="evenodd" clip-rule="evenodd" d="M144.22 389.577L142.068 389.535L106.702 373.781L98.4734 308.79L137.045 321.134L144.22 389.577Z" fill="white"/>
<path fill-rule="evenodd" clip-rule="evenodd" d="M141.991 389.531L104.694 372.935C104.354 372.784 104.114 372.459 104.066 372.081L96.0918 309.618C95.9916 308.832 96.72 308.206 97.4575 308.443L134.039 320.206C134.44 320.335 134.728 320.694 134.773 321.123L141.991 389.531Z" fill="#253368"/>
<path fill-rule="evenodd" clip-rule="evenodd" d="M238.333 373.97L237.526 374.118C231.994 375.126 226.712 371.348 225.728 365.679L216.65 313.379C215.667 307.709 219.355 302.297 224.885 301.287L225.693 301.141C231.224 300.132 236.507 303.911 237.49 309.58L246.568 361.879C247.552 367.548 243.864 372.962 238.333 373.97Z" fill="#FFC999"/>
<path fill-rule="evenodd" clip-rule="evenodd" d="M241.399 332.098L237.17 307.735C236.151 301.861 230.628 297.911 224.897 298.955C219.167 300 215.311 305.66 216.33 311.533L220.519 335.666L241.399 332.098Z" fill="white"/>
<path d="M237.416 307.358C237.57 307.33 237.718 307.42 237.77 307.565L237.785 307.622L242.013 331.986C242.041 332.145 241.952 332.297 241.81 332.35L241.754 332.365L220.124 336.19C219.972 336.217 219.826 336.129 219.772 335.986L219.757 335.93L216.089 316.27C216.056 316.093 216.17 315.922 216.343 315.888C216.496 315.858 216.645 315.946 216.7 316.09L216.715 316.147L220.323 335.491L241.33 331.777L237.158 307.737C237.13 307.579 237.219 307.427 237.36 307.373L237.416 307.358Z" fill="#4E5C93"/>
<path fill-rule="evenodd" clip-rule="evenodd" d="M175.594 372.202C175.827 375.224 178.339 377.523 181.295 377.422L238.36 375.454C243.599 375.096 247.541 370.419 247.126 365.055C246.708 359.645 242.021 355.65 236.753 356.214L180.173 366.166C177.354 366.661 175.368 369.28 175.594 372.202Z" fill="#FFC999"/>
<path fill-rule="evenodd" clip-rule="evenodd" d="M186.478 377.069C182.484 380.273 169.549 379 169.549 379L161.213 383.794C159.917 384.407 159.556 383.52 158.902 383.555C157.137 383.649 157.041 381.751 157.041 381.751C156.418 381.487 155.462 382.015 155.11 380.312C155.11 380.312 153.871 380.287 153.705 378.755C153.617 377.946 161.065 365.796 161.065 365.796L173.08 365.493C173.08 365.493 190.625 364.897 192.795 368.821C194.964 372.746 186.478 377.069 186.478 377.069Z" fill="#FFC999"/>
<path d="M160.822 364.942L182.559 365.532C182.778 365.538 182.95 365.724 182.944 365.947C182.939 366.149 182.791 366.312 182.603 366.338L182.538 366.342L161.026 365.758L159.997 367.451L158.967 369.162C158.797 369.446 158.627 369.729 158.459 370.011L156.998 372.479C155.164 375.612 153.882 377.972 153.846 378.246L153.845 378.261C153.869 378.484 153.713 378.684 153.496 378.709C153.279 378.734 153.084 378.574 153.059 378.351C153.012 377.919 153.902 376.22 155.729 373.076L156.793 371.258C157.438 370.165 158.119 369.024 158.808 367.881L160.477 365.132C160.541 365.028 160.646 364.96 160.763 364.945L160.822 364.942Z" fill="#DD936F"/>
<path d="M165.457 368.652C165.656 368.559 165.89 368.648 165.981 368.852C166.063 369.035 166.001 369.248 165.843 369.357L165.787 369.389L161.374 371.461L155.439 380.538C155.33 380.705 155.12 380.762 154.947 380.681L154.891 380.648C154.727 380.536 154.672 380.321 154.751 380.144L154.782 380.086L160.78 370.916C160.81 370.869 160.85 370.83 160.896 370.8L160.944 370.773L165.457 368.652Z" fill="#DD936F"/>
<path d="M166.394 371.932C166.591 371.836 166.827 371.922 166.92 372.124C167.004 372.306 166.944 372.52 166.788 372.631L166.732 372.664L163.242 374.357L157.351 382.001C157.231 382.157 157.021 382.198 156.856 382.108L156.796 382.068C156.644 381.945 156.604 381.73 156.692 381.56L156.731 381.499L162.68 373.781C162.705 373.748 162.735 373.72 162.768 373.697L162.821 373.666L166.394 371.932Z" fill="#DD936F"/>
<path d="M169.949 373.675C170.141 373.569 170.381 373.643 170.484 373.84C170.577 374.017 170.528 374.234 170.378 374.353L170.324 374.389L165.49 377.056L159.395 383.573C159.261 383.716 159.048 383.736 158.892 383.63L158.836 383.585C158.696 383.447 158.676 383.229 158.78 383.069L158.824 383.012L164.961 376.45L165.059 376.374L169.949 373.675Z" fill="#DD936F"/>
<path d="M111.216 411.014C111.366 410.892 111.577 410.903 111.716 411.028L111.764 411.081L134.308 440.418C134.442 440.592 134.413 440.844 134.243 440.981C134.092 441.102 133.882 441.092 133.743 440.966L133.694 440.914L111.15 411.576C111.017 411.403 111.046 411.151 111.216 411.014Z" fill="#253368"/>
</svg>
